Coordinates
version=1
nRows=6
nColumns=63
inDegrees=yes

Units are S.I. units (second, meters, Newtons, ...)
If the header above contains a line with 'inDegrees', this indicates whether rotational values are in degrees (yes) or radians (no).

endheader
time	pelvis_tilt	pelvis_list	pelvis_rotation	pelvis_tx	pelvis_ty	pelvis_tz	hip_flexion_r	hip_adduction_r	hip_rotation_r	knee_angle_r	knee_angle_r_beta	ankle_angle_r	subtalar_angle_r	mtp_angle_r	hip_flexion_l	hip_adduction_l	hip_rotation_l	knee_angle_l	knee_angle_l_beta	ankle_angle_l	subtalar_angle_l	mtp_angle_l	L5_S1_Flex_Ext	L5_S1_Lat_Bending	L5_S1_axial_rotation	L4_L5_Flex_Ext	L4_L5_Lat_Bending	L4_L5_axial_rotation	L3_L4_Flex_Ext	L3_L4_Lat_Bending	L3_L4_axial_rotation	L2_L3_Flex_Ext	L2_L3_Lat_Bending	L2_L3_axial_rotation	L1_L2_Flex_Ext	L1_L2_Lat_Bending	L1_L2_axial_rotation	L1_T12_Flex_Ext	L1_T12_Lat_Bending	L1_T12_axial_rotation	Abs_r3	Abs_r2	Abs_r1	Abs_t1	Abs_t2	neck_flexion	neck_bending	neck_rotation	arm_flex_r	arm_add_r	arm_rot_r	elbow_flex_r	pro_sup_r	wrist_flex_r	wrist_dev_r	arm_flex_l	arm_add_l	arm_rot_l	elbow_flex_l	pro_sup_l	wrist_flex_l	wrist_dev_l
1.833333	-0.041068	-5.148440	85.236470	0.380944	0.856567	0.540910	4.309369	0.001652	-1.708167	9.269939	0.161791	21.517221	12.731344	0.000000	1.360314	-4.100605	-14.810052	8.220654	0.143477	17.515703	10.572252	0.000000	0.458916	0.383647	-0.852946	0.852254	0.510250	-0.906255	0.753954	0.932799	-0.906255	0.524496	0.932799	-0.746327	0.426150	0.782333	-0.693018	0.262225	0.594269	-0.639709	3.277994	4.339889	-4.743827	0.000000	0.000000	28.429765	11.998103	6.150874	-0.048976	-22.319873	25.538004	34.659317	72.438097	-18.660144	-4.322251	1.986264	-23.573372	56.397058	32.983561	71.708519	-8.301363	-3.725129
1.850000	0.004610	-5.260229	85.147867	0.380740	0.856261	0.541478	4.503028	0.036598	-1.862345	9.302305	0.162356	21.686659	12.906249	0.000000	1.399756	-4.177040	-15.254019	8.210090	0.143293	17.282641	10.995917	0.000000	0.469620	0.389825	-0.767000	0.872130	0.518468	-0.814937	0.771538	0.947822	-0.814937	0.536728	0.947822	-0.671125	0.436089	0.794932	-0.623187	0.268341	0.603840	-0.575250	3.354445	4.409783	-4.265822	0.000000	0.000000	28.432821	11.142821	5.017191	-0.158638	-22.326484	25.790571	35.058994	72.496941	-18.127828	-4.383173	1.972302	-22.993197	55.239720	33.349852	68.478168	-7.524026	-3.835671
1.866667	0.064515	-5.371650	85.084749	0.380513	0.855961	0.542049	4.689881	0.088518	-1.971947	9.327781	0.162800	21.859905	13.027191	0.000000	1.462387	-4.265742	-15.543751	8.224985	0.143553	17.111254	11.300248	0.000000	0.482325	0.397466	-0.654923	0.895726	0.528630	-0.695855	0.792412	0.966399	-0.695855	0.551250	0.966399	-0.573057	0.447887	0.810513	-0.532125	0.275601	0.615675	-0.491192	3.445201	4.496217	-3.642483	0.000000	0.000000	28.437418	10.119921	3.690158	-0.430608	-22.287056	25.681949	35.493678	72.626707	-17.436222	-4.415463	2.288771	-22.364892	54.887500	33.616459	65.955490	-6.972498	-3.778519
1.883333	0.133533	-5.480898	85.050902	0.380251	0.855653	0.542619	4.866719	0.150504	-2.059214	9.345570	0.163111	22.036994	13.112667	0.000000	1.553666	-4.352832	-15.605698	8.258980	0.144146	17.031660	11.418736	0.000000	0.495359	0.407704	-0.533223	0.919931	0.542246	-0.566550	0.813825	0.991290	-0.566550	0.566146	0.991290	-0.466570	0.459990	0.831389	-0.433244	0.283048	0.631533	-0.399917	3.538298	4.612024	-2.965627	0.000000	0.000000	28.442728	9.112409	2.436674	-0.852075	-22.164399	25.085321	36.031804	73.022656	-16.652324	-4.180435	2.843003	-21.722478	55.068889	33.854111	64.270908	-6.572738	-3.511550
1.900000	0.204735	-5.572167	85.010732	0.379978	0.855373	0.543198	5.022076	0.213002	-2.100151	9.359411	0.163353	22.206747	13.192418	0.000000	1.654818	-4.432578	-15.529434	8.304053	0.144933	17.087413	11.454871	0.000000	0.507385	0.419090	-0.393525	0.942264	0.557389	-0.418120	0.833582	1.018975	-0.418120	0.579890	1.018975	-0.344334	0.471157	0.854608	-0.319739	0.289920	0.649170	-0.295144	3.624198	4.740828	-2.188668	0.000000	0.000000	28.448846	8.002887	1.082695	-1.418168	-21.952838	24.024849	36.580068	73.524264	-15.740589	-3.981002	3.723602	-21.063574	56.117374	34.013120	63.423721	-6.362888	-3.044512
1.916667	0.273026	-5.647696	84.974470	0.379697	0.855094	0.543774	5.156449	0.270821	-2.119406	9.370386	0.163544	22.384538	13.268879	0.000000	1.774431	-4.499960	-15.308236	8.358013	0.145875	17.306505	11.428401	0.000000	0.516817	0.432250	-0.260248	0.959780	0.574892	-0.276513	0.849078	1.050972	-0.276513	0.590670	1.050972	-0.227717	0.479916	0.881443	-0.211451	0.295309	0.669555	-0.195186	3.691569	4.889694	-1.447421	0.000000	0.000000	28.453964	7.076202	0.024585	-2.039983	-21.667732	22.636370	37.188895	74.267589	-14.704736	-3.471215	4.789721	-20.430054	57.707324	34.185797	63.398167	-6.326087	-2.355667
